<svg width="40" height="40" viewBox="0 0 40 40" fill="none" xmlns="http://www.w3.org/2000/svg">
<path d="M33.75 20.95V19.0375L36.15 16.9375C36.5924 16.5476 36.8827 16.0138 36.9697 15.4305C37.0566 14.8472 36.9345 14.252 36.625 13.75L33.675 8.75002C33.4558 8.37035 33.1406 8.055 32.7611 7.8356C32.3815 7.6162 31.9509 7.50047 31.5125 7.50002C31.2408 7.49794 30.9706 7.54016 30.7125 7.62502L27.675 8.65002C27.1506 8.30153 26.6035 7.98834 26.0375 7.71252L25.4 4.56252C25.2857 3.98703 24.9726 3.47007 24.5156 3.10215C24.0585 2.73423 23.4866 2.53878 22.9 2.55002H17.05C16.4634 2.53878 15.8915 2.73423 15.4344 3.10215C14.9774 3.47007 14.6643 3.98703 14.55 4.56252L13.9125 7.71252C13.3424 7.98827 12.7912 8.30146 12.2625 8.65002L9.28751 7.57502C9.02663 7.50705 8.75648 7.48172 8.48751 7.50002C8.0491 7.50047 7.61852 7.6162 7.23896 7.8356C6.8594 8.055 6.54421 8.37035 6.32501 8.75002L3.37501 13.75C3.08324 14.2513 2.97483 14.8383 3.06832 15.4107C3.16182 15.9831 3.45141 16.5052 3.88751 16.8875L6.25001 19.05V20.9625L3.88751 23.0625C3.4391 23.4475 3.14158 23.9789 3.04776 24.5625C2.95394 25.146 3.06988 25.7439 3.37501 26.25L6.32501 31.25C6.54421 31.6297 6.8594 31.945 7.23896 32.1644C7.61852 32.3838 8.0491 32.4996 8.48751 32.5C8.7592 32.5021 9.02941 32.4599 9.28751 32.375L12.325 31.35C12.8494 31.6985 13.3965 32.0117 13.9625 32.2875L14.6 35.4375C14.7143 36.013 15.0274 36.53 15.4844 36.8979C15.9415 37.2658 16.5134 37.4613 17.1 37.45H23C23.5866 37.4613 24.1585 37.2658 24.6156 36.8979C25.0726 36.53 25.3857 36.013 25.5 35.4375L26.1375 32.2875C26.7076 32.0118 27.2588 31.6986 27.7875 31.35L30.8125 32.375C31.0706 32.4599 31.3408 32.5021 31.6125 32.5C32.0509 32.4996 32.4815 32.3838 32.8611 32.1644C33.2406 31.945 33.5558 31.6297 33.775 31.25L36.625 26.25C36.9168 25.7488 37.0252 25.1617 36.9317 24.5893C36.8382 24.0169 36.5486 23.4949 36.1125 23.1125L33.75 20.95ZM31.5125 30L27.225 28.55C26.2213 29.4002 25.0743 30.0647 23.8375 30.5125L22.95 35H17.05L16.1625 30.5625C14.9355 30.102 13.7947 29.4386 12.7875 28.6L8.48751 30L5.53751 25L8.93751 22C8.70638 20.7061 8.70638 19.3814 8.93751 18.0875L5.53751 15L8.48751 10L12.775 11.45C13.7787 10.5999 14.9258 9.93534 16.1625 9.48752L17.05 5.00002H22.95L23.8375 9.43752C25.0645 9.89805 26.2054 10.5614 27.2125 11.4L31.5125 10L34.4625 15L31.0625 18C31.2936 19.2939 31.2936 20.6186 31.0625 21.9125L34.4625 25L31.5125 30Z" fill="black"/>
<path d="M20 27.5C18.5166 27.5 17.0666 27.0601 15.8332 26.236C14.5999 25.4119 13.6386 24.2406 13.0709 22.8701C12.5032 21.4997 12.3547 19.9917 12.6441 18.5368C12.9335 17.082 13.6478 15.7456 14.6967 14.6967C15.7456 13.6478 17.082 12.9335 18.5368 12.6441C19.9917 12.3547 21.4997 12.5032 22.8701 13.0709C24.2406 13.6386 25.4119 14.5999 26.236 15.8332C27.0601 17.0666 27.5 18.5166 27.5 20C27.51 20.9877 27.3229 21.9675 26.9495 22.882C26.5762 23.7964 26.0241 24.6272 25.3257 25.3257C24.6272 26.0241 23.7964 26.5762 22.882 26.9495C21.9675 27.3229 20.9877 27.51 20 27.5ZM20 15C19.3392 14.9846 18.6821 15.1034 18.0685 15.3492C17.4549 15.5951 16.8976 15.9628 16.4302 16.4302C15.9628 16.8976 15.5951 17.4549 15.3492 18.0685C15.1034 18.6821 14.9846 19.3392 15 20C14.9846 20.6608 15.1034 21.3179 15.3492 21.9315C15.5951 22.5451 15.9628 23.1024 16.4302 23.5698C16.8976 24.0372 17.4549 24.4049 18.0685 24.6508C18.6821 24.8966 19.3392 25.0154 20 25C20.6608 25.0154 21.3179 24.8966 21.9315 24.6508C22.5451 24.4049 23.1024 24.0372 23.5698 23.5698C24.0372 23.1024 24.4049 22.5451 24.6508 21.9315C24.8966 21.3179 25.0154 20.6608 25 20C25.0154 19.3392 24.8966 18.6821 24.6508 18.0685C24.4049 17.4549 24.0372 16.8976 23.5698 16.4302C23.1024 15.9628 22.5451 15.5951 21.9315 15.3492C21.3179 15.1034 20.6608 14.9846 20 15Z" fill="black"/>
</svg>
