<svg width="50" height="50" viewBox="0 0 50 50" fill="none" xmlns="http://www.w3.org/2000/svg">
<path d="M35 31.005H15C14.4697 31.0045 13.9613 30.7936 13.5864 30.4186C13.2114 30.0437 13.0005 29.5353 13 29.005V15.005C13.0005 14.4747 13.2114 13.9663 13.5864 13.5914C13.9613 13.2164 14.4697 13.0055 15 13.005H35C35.5303 13.0055 36.0387 13.2164 36.4136 13.5914C36.7886 13.9663 36.9995 14.4747 37 15.005V29.005C36.9992 29.5352 36.7882 30.0434 36.4133 30.4183C36.0384 30.7932 35.5302 31.0042 35 31.005ZM15 15.005V29.005H35V15.005H15ZM11 33.005H39V35.005H11V33.005Z" fill="black"/>
<circle cx="25" cy="25" r="25" fill="#3E83F3" fill-opacity="0.6"/>
</svg>
