<svg width="40" height="40" viewBox="0 0 40 40" fill="none" xmlns="http://www.w3.org/2000/svg">
<path d="M32.5 5H27.5V2.5H25V5H15V2.5H12.5V5H7.5C6.83716 5.00066 6.20166 5.26427 5.73296 5.73296C5.26427 6.20166 5.00066 6.83716 5 7.5V32.5C5.00066 33.1628 5.26427 33.7983 5.73296 34.267C6.20166 34.7357 6.83716 34.9993 7.5 35H32.5C33.1628 34.9993 33.7983 34.7357 34.267 34.267C34.7357 33.7983 34.9993 33.1628 35 32.5V7.5C34.9993 6.83716 34.7357 6.20166 34.267 5.73296C33.7983 5.26427 33.1628 5.00066 32.5 5ZM7.5 7.5H12.5V10H15V7.5H25V10H27.5V7.5H32.5V12.5H7.5V7.5ZM7.5 15H13.75V22.5H7.5V15ZM23.75 32.5H16.25V25H23.75V32.5ZM23.75 22.5H16.25V15H23.75V22.5ZM26.25 32.5V25H32.5L32.5012 32.5H26.25Z" fill="black"/>
</svg>
