<svg width="40" height="40" viewBox="0 0 40 40" fill="none" xmlns="http://www.w3.org/2000/svg">
<path d="M20.765 2.7675C20.5432 2.59458 20.27 2.50066 19.9888 2.50066C19.7075 2.50066 19.4343 2.59458 19.2125 2.7675L1.25 16.7738L2.80375 18.7388L5 17.0263V32.5C5.00132 33.1626 5.26514 33.7978 5.73369 34.2663C6.20225 34.7349 6.83736 34.9987 7.5 35H32.5C33.1626 34.9987 33.7978 34.7349 34.2663 34.2663C34.7349 33.7978 34.9987 33.1626 35 32.5V17.0375L37.1963 18.75L38.75 16.785L20.765 2.7675ZM22.5 32.5H17.5V22.5H22.5V32.5ZM25 32.5V22.5C24.9993 21.8372 24.7357 21.2017 24.267 20.733C23.7983 20.2643 23.1628 20.0007 22.5 20H17.5C16.8372 20.0007 16.2017 20.2643 15.733 20.733C15.2643 21.2017 15.0007 21.8372 15 22.5V32.5H7.5V15.0775L20 5.34L32.5 15.09V32.5H25Z" fill="black"/>
</svg>
