<svg width="40" height="40" viewBox="0 0 40 40" fill="none" xmlns="http://www.w3.org/2000/svg">
<path d="M32.5 32.5H7.5V7.5H20V5H7.5C6.83716 5.00066 6.20166 5.26427 5.73296 5.73296C5.26427 6.20166 5.00066 6.83716 5 7.5V32.5C5.00066 33.1628 5.26427 33.7983 5.73296 34.267C6.20166 34.7357 6.83716 34.9993 7.5 35H32.5C33.1628 34.9993 33.7983 34.7357 34.267 34.267C34.7357 33.7983 34.9993 33.1628 35 32.5V20H32.5V32.5Z" fill="black"/>
<path d="M32.5 32.5H7.5V7.5H20V5H7.5C6.83716 5.00066 6.20166 5.26427 5.73296 5.73296C5.26427 6.20166 5.00066 6.83716 5 7.5V32.5C5.00066 33.1628 5.26427 33.7983 5.73296 34.267C6.20166 34.7357 6.83716 34.9993 7.5 35H32.5C33.1628 34.9993 33.7983 34.7357 34.267 34.267C34.7357 33.7983 34.9993 33.1628 35 32.5V20H32.5V32.5Z" fill="black"/>
<path d="M32.5 7.5V2.5H30V7.5H25V10H30V15H32.5V10H37.5V7.5H32.5Z" fill="black"/>
</svg>
