<svg width="50" height="50" viewBox="0 0 50 50" fill="none" xmlns="http://www.w3.org/2000/svg">
<path d="M35 33.005H15C14.4697 33.0045 13.9613 32.7936 13.5864 32.4186C13.2114 32.0437 13.0005 31.5353 13 31.005V17.005C13.0005 16.4747 13.2114 15.9663 13.5864 15.5914C13.9613 15.2164 14.4697 15.0055 15 15.005H35C35.5303 15.0055 36.0387 15.2164 36.4136 15.5914C36.7886 15.9663 36.9995 16.4747 37 17.005V31.005C36.9992 31.5352 36.7882 32.0434 36.4133 32.4183C36.0384 32.7932 35.5302 33.0042 35 33.005ZM15 17.005V31.005H35V17.005H15ZM11 35.005H39V37.005H11V35.005Z" fill="black"/>
<circle cx="25" cy="25" r="25" fill="#F3B604" fill-opacity="0.6"/>
</svg>
