<svg width="50" height="50" viewBox="0 0 50 50" fill="none" xmlns="http://www.w3.org/2000/svg">
<path d="M35 32.005H15C14.4697 32.0045 13.9613 31.7936 13.5864 31.4186C13.2114 31.0437 13.0005 30.5353 13 30.005V16.005C13.0005 15.4747 13.2114 14.9663 13.5864 14.5914C13.9613 14.2164 14.4697 14.0055 15 14.005H35C35.5303 14.0055 36.0387 14.2164 36.4136 14.5914C36.7886 14.9663 36.9995 15.4747 37 16.005V30.005C36.9992 30.5352 36.7882 31.0434 36.4133 31.4183C36.0384 31.7932 35.5302 32.0042 35 32.005ZM15 16.005V30.005H35V16.005H15ZM11 34.005H39V36.005H11V34.005Z" fill="black"/>
<circle cx="25" cy="25" r="25" fill="#4D57C3" fill-opacity="0.6"/>
</svg>
